<?xml version="1.0" encoding="utf-8"?>
<!-- Generated by IcoMoon.io -->
<!DOCTYPE svg PUBLIC "-//W3C//DTD SVG 1.1//EN" "http://www.w3.org/Graphics/SVG/1.1/DTD/svg11.dtd">
<svg version="1.1" xmlns="http://www.w3.org/2000/svg" xmlns:xlink="http://www.w3.org/1999/xlink" width="512" height="512" viewBox="0 0 512 512">
<g>
</g>
	<path d="M387.512 378.89c0 10.701-8.632 19.385-19.353 19.385h-224.154c-10.701 0-19.364-8.683-19.364-19.385v-200.263c58.757-0.215 195.83-0.215 262.871 0v200.263z" fill="#000000" />
	<path d="M207.678 75.95c1.106 2.171 0.266 4.885-1.935 6.011v0c-2.181 1.106-4.894 0.236-6-1.945l-28.334-55.224c-1.126-2.201-0.226-4.864 1.956-6v0c2.181-1.127 4.874-0.256 6 1.936l28.314 55.224z" fill="#000000" />
	<path d="M310.876 78.275c-1.229 2.14-3.952 2.877-6.103 1.608v0c-2.13-1.209-2.857-3.932-1.608-6.073l31.027-53.73c1.229-2.13 3.973-2.887 6.082-1.628v0c2.151 1.218 2.877 3.953 1.649 6.072l-31.048 53.75z" fill="#000000" />
	<path d="M455.946 324.587c0 15.575-12.615 28.221-28.221 28.221v0c-15.606 0-28.252-12.636-28.252-28.221v-123.505c0-15.606 12.636-28.211 28.252-28.211v0c15.596 0 28.221 12.606 28.221 28.211v123.505z" fill="#000000" />
	<path d="M112.496 324.587c0 15.575-12.656 28.221-28.211 28.221v0c-15.616 0-28.242-12.636-28.242-28.221v-123.505c0-15.606 12.615-28.211 28.242-28.211v0c15.555 0 28.211 12.606 28.211 28.211v123.505z" fill="#000000" />
	<path d="M235.397 465.93c0 15.575-12.636 28.221-28.262 28.221v0c-15.575 0-28.19-12.636-28.19-28.221v-123.505c0-15.565 12.615-28.242 28.19-28.242v0c15.616 0 28.262 12.677 28.262 28.242v123.505z" fill="#000000" />
	<path d="M333.302 465.93c0 15.575-12.636 28.221-28.252 28.221v0c-15.575 0-28.221-12.636-28.221-28.221v-123.505c0-15.565 12.636-28.242 28.221-28.242v0c15.606 0 28.252 12.677 28.252 28.242v123.505z" fill="#000000" />
	<path d="M256.082 46.663c-68.649 0-125.184 52.245-132.741 119.399h265.472c-7.536-67.154-64.041-119.398-132.731-119.398zM196.188 119.050c-6.124 0-11.070-4.925-11.070-11.028 0-6.082 4.946-11.008 11.070-11.008 6.062 0 11.008 4.925 11.008 11.008 0 6.103-4.946 11.028-11.008 11.028zM316.211 119.050c-6.103 0-11.049-4.925-11.049-11.028 0-6.082 4.946-11.008 11.049-11.008 6.123 0 11.029 4.925 11.029 11.008 0 6.103-4.905 11.028-11.029 11.028z" fill="#000000" />
</svg>
